<?xml version="1.0" standalone="no"?>
<!DOCTYPE svg PUBLIC "-//W3C//DTD SVG 20010904//EN"
 "http://www.w3.org/TR/2001/REC-SVG-20010904/DTD/svg10.dtd">
<svg version="1.0" xmlns="http://www.w3.org/2000/svg"
 width="100pt" height="100pt" viewBox="0 0 179.000000 168.000000"
 preserveAspectRatio="xMidYMid meet">

<g transform="translate(0.000000,168.000000) scale(0.100000,-0.100000)"
fill="currentColor" stroke="none">
<path d="M442 1470 c-52 -32 -74 -76 -69 -138 3 -47 9 -59 45 -95 40 -39 45
-42 100 -42 69 0 112 26 142 86 l20 39 118 0 c135 0 128 4 197 -102 l38 -58
329 0 c308 0 329 1 326 18 -3 16 -28 17 -316 22 -265 4 -315 7 -322 20 -5 8
-29 43 -54 78 l-46 62 -136 0 -135 0 -14 34 c-8 18 -30 47 -50 65 -30 26 -44
31 -88 31 -34 0 -63 -7 -85 -20z m128 -35 c30 -15 60 -61 60 -89 0 -29 -33
-84 -57 -95 -34 -15 -85 -14 -109 4 -12 8 -29 30 -38 49 -15 32 -15 38 0 77
25 61 86 84 144 54z"/>
<path d="M815 1081 c-11 -5 -33 -23 -49 -40 -23 -24 -30 -42 -34 -86 -4 -47
-1 -61 21 -94 40 -59 116 -86 179 -62 32 12 79 60 90 94 l10 27 329 0 c322 0
329 0 329 20 0 19 -8 20 -327 22 l-328 3 -16 35 c-29 61 -62 83 -127 87 -31 1
-66 -1 -77 -6z m109 -48 c24 -11 40 -28 51 -56 15 -36 14 -42 -2 -76 -11 -23
-32 -43 -56 -55 -37 -18 -40 -18 -77 -1 -27 12 -43 29 -55 56 -16 34 -16 43
-4 76 10 26 26 44 49 55 43 22 51 22 94 1z"/>
<path d="M175 860 c-11 -4 -35 -24 -54 -43 -27 -28 -35 -46 -38 -84 -8 -93 57
-163 153 -163 46 0 58 5 90 32 20 18 43 48 51 66 l14 33 77 -3 77 -3 46 -80
45 -80 202 -3 202 -2 37 57 c20 32 39 60 41 63 2 3 130 7 285 10 258 5 282 6
285 23 3 16 -16 17 -296 17 l-300 0 -41 -65 -40 -65 -170 0 -170 0 -37 68
c-58 104 -54 102 -155 102 l-88 0 -23 42 c-41 74 -123 108 -193 78z m125 -69
c39 -38 47 -75 26 -117 -23 -50 -73 -71 -126 -55 -34 10 -45 20 -60 54 -17 37
-17 44 -4 75 8 19 14 36 14 38 0 2 12 10 28 18 45 25 90 20 122 -13z"/>
<path d="M1282 378 l-49 -83 -241 -3 -242 -2 -13 32 c-8 19 -31 48 -51 66 -32
28 -44 32 -93 32 -52 0 -58 -3 -99 -44 -42 -42 -44 -46 -44 -105 0 -58 2 -64
39 -104 39 -41 41 -42 105 -42 58 0 68 3 97 30 17 17 38 45 45 62 l14 33 257
2 257 3 48 80 48 80 162 5 c145 4 163 7 166 23 3 16 -11 17 -177 17 l-180 0
-49 -82z m-647 -12 c36 -15 65 -59 65 -98 0 -38 -35 -85 -73 -97 -65 -22 -137
31 -137 99 0 36 30 81 63 95 40 18 41 18 82 1z"/>
</g>
</svg>
